<svg xmlns="http://www.w3.org/2000/svg" viewBox="0 0 13.99 14"><defs><style>.cls-1{fill:#ef4726;}</style></defs><title>Asset 1</title><g id="Layer_2" data-name="Layer 2"><g id="Layer_1-2" data-name="Layer 1"><path id="Path_28" data-name="Path 28" class="cls-1" d="M14,10.91V3.08A3.09,3.09,0,0,0,10.91,0H3.08A3.08,3.08,0,0,0,0,3.08v7.83A3.1,3.1,0,0,0,3.08,14h7.83A3.1,3.1,0,0,0,14,10.91M7.67,4.74v.68H9l-.1,1-.06.66H7.6v4.22H5.92V7.11H5.07V5.42h.84V4.66A1.64,1.64,0,0,1,7.41,2.9H9V4.35H8a.36.36,0,0,0-.38.34.11.11,0,0,0,0,0"/></g></g></svg>