<svg xmlns="http://www.w3.org/2000/svg" viewBox="0 0 14 14"><defs><style>.cls-1{fill:#ef4726;}</style></defs><title>insagram</title><g id="Layer_2" data-name="Layer 2"><g id="Layer_1-2" data-name="Layer 1"><g id="Group_29" data-name="Group 29"><path id="Path_27" data-name="Path 27" class="cls-1" d="M14,10.91V3.08A3.09,3.09,0,0,0,10.92,0H3.08A3.09,3.09,0,0,0,0,3.08v7.83A3.1,3.1,0,0,0,3.08,14h7.84A3.1,3.1,0,0,0,14,10.91M11.76,9.05a2.71,2.71,0,0,1-2.71,2.71H5A2.71,2.71,0,0,1,2.24,9.05V4.94A2.71,2.71,0,0,1,5,2.23h4.1a2.71,2.71,0,0,1,2.71,2.71Zm-.82,0V4.94A1.89,1.89,0,0,0,9,3.05H4.94A1.9,1.9,0,0,0,3,4.94V9.05A1.91,1.91,0,0,0,4.94,11H9a1.89,1.89,0,0,0,1.9-1.9h0M9.44,7A2.44,2.44,0,1,1,7,4.56,2.44,2.44,0,0,1,9.44,7m.69-2.58A.59.59,0,1,1,9,4.42H9a.59.59,0,0,1,.59-.59h0a.6.6,0,0,1,.59.59M8.62,7A1.62,1.62,0,1,0,7,8.62,1.62,1.62,0,0,0,8.62,7"/></g></g></g></svg>