<svg xmlns="http://www.w3.org/2000/svg" width="250" height="250" viewBox="0 0 250 250">
  <defs>
    <style>
      .cls-1 {
        fill: #fff;
      }
    </style>
  </defs>
  <g id="Group_1" data-name="Group 1" transform="translate(-281 -259)">
    <path id="Path_1" data-name="Path 1" class="cls-1" d="M340.777,297.136a21.623,21.623,0,1,1-21.688-21.656A21.644,21.644,0,0,1,340.777,297.136Z" transform="translate(37.139 37.027)"/>
    <path id="Path_2" data-name="Path 2" class="cls-1" d="M281,259V509H531V259ZM399.539,456.89v20.162H312.915l-.032-17.6,52.11-48.377H313.078v-20.26h86.493l.033,19.773-53.312,46.3Zm-43.9-79.416a43.285,43.285,0,1,1,1.429-86.558c23.409.227,42.695,19.87,42.533,43.312A43.265,43.265,0,0,1,355.643,377.474Zm143.409,99.611H413.273v-20.26h85.779Zm-85.747-34.221V424.325H478.63v18.539Zm85.747-31.916H413.305v-20.13h85.747Zm.065-33.344h-2.467c-5.065,0-10.1-.065-15.13.033-1.851,0-47.565-51.4-48.377-52.111v51.916h-20.26V290.948c6.656,0,13.149-.1,19.61.065,1.006.032,45.552,52.4,46.461,53.214V290.981h20.162Z" transform="translate(0)"/>
  </g>
</svg>
