<svg xmlns="http://www.w3.org/2000/svg" viewBox="0 0 40.21 9.43"><defs><style>.cls-1{fill:#414142;}</style></defs><title>onzee</title><g id="Layer_2" data-name="Layer 2"><g id="Layer_1-2" data-name="Layer 1"><g id="Group_35" data-name="Group 35"><g id="Group_34" data-name="Group 34"><g id="Group_33" data-name="Group 33"><path id="Path_30" data-name="Path 30" class="cls-1" d="M4.63,9.43A4.71,4.71,0,0,0,9.4,4.79V4.72A4.7,4.7,0,0,0,0,4.64v0A4.71,4.71,0,0,0,4.63,9.43m.06-2.36A2.36,2.36,0,0,1,2.35,4.7h0A2.35,2.35,0,1,1,7,4.7H7A2.34,2.34,0,0,1,4.69,7.07h0M17.57.17V5.74c-.1-.08-4.73-5.56-4.84-5.56-.67,0-1.35,0-2,0V9.22H12.8V3.79l5.05,5.45h1.81V.17ZM21,2.34h5.4L21,7.4V9.24h9V7.13H24.45L30,2.29V.22H21ZM40.21.21H31.29v2.1h8.92ZM31.29,5.66h6.8V3.72h-6.8Zm8.92,1.46H31.28V9.24h8.93Z"/></g></g></g></g></g></svg>